<svg xmlns="http://www.w3.org/2000/svg" xmlns:xlink="http://www.w3.org/1999/xlink" width="240" height="135" version="1.1" viewBox="0 0 240 135"><defs><filter id="f" width="1" height="1" x="0" y="0"><feImage result="a" xlink:href="#a"/><feImage result="b" xlink:href="#b"/><feBlend in="a" in2="b" mode="multiply"/></filter><g id="a" stroke-miterlimit="0"><path fill="#5aa861" stroke="#5aa861" d="m226.7 0l-25.7 83 39-2.83v-80.17h-13.3z"/><path fill="#87cb7c" stroke="#87cb7c" d="m138 0l20 37 43.1-37h-63.1z"/><path fill="#6cbe70" stroke="#6cbe70" d="m201.1 0l-43.1 37 43 46 25.7-83h-25.6z"/><path fill="#68bd6f" stroke="#68bd6f" d="m158 37l-61.67 98h18.47l86.2-52-43-46z"/><path fill="#80c97a" stroke="#80c97a" d="m158 37l-158 32 66.79 66h29.54l61.67-98z"/><path fill="#95d384" stroke="#95d384" d="m55.73 0l-55.73 69 158-32-20-37h-82.27z"/><path fill="#b2e090" stroke="#b2e090" d="m0 0v69l55.73-69h-55.73z"/><path fill="#87c478" stroke="#87c478" d="m0 69v66h13.62l-13.62-66z"/><path fill="#7bc475" stroke="#7bc475" d="m0 69l13.62 66h53.17l-66.79-66z"/><path fill="#48ae60" stroke="#48ae60" d="m201 83l-86.2 52h125.2v-12.1l-39-39.9z"/><path fill="#3f9b55" stroke="#3f9b55" d="m240 80.17l-39 2.83 39 39.9v-42.73z"/></g><rect id="b" width="240" height="135" fill="#00AF49"/></defs><rect width="100%" height="100%" filter="url(#f)"/></svg>