<svg xmlns="http://www.w3.org/2000/svg" xmlns:svg="http://www.w3.org/2000/svg" id="svg2" width="500" height="150" x="0" y="0" enable-background="new 250.5 445.5 500 100" version="1.1" viewBox="250.5 445.5 500 150" xml:space="preserve"><metadata id="metadata36"/><path id="path4" fill="#e0e0e0" d="m6.8e2 6.1e2c4.9-10 35-50 75-50s71 40 75 50"/><path id="path6" fill="#e0e0e0" d="m4.5e2 6.1e2c5.8-10 41-50 88-50s83 40 88 50"/><path id="path8" fill="#e5e5e5" d="m6.3e2 6.1e2c3.3-10 23-50 50-50s48 40 50 50"/><path id="path10" fill="#dbdbdb" d="m2.8e2 6.1e2c5-12 35-60 75-60s72 48 75 60"/><path id="path12" fill="#dbdbdb" d="m5.6e2 6.1e2c4.2-8 29-40 62-40s60 32 62 40"/><path id="path14" fill="#e5e5e5" d="m3.8e2 6.1e2c4.2-8 29-40 62-40s60 32 62 40"/><path id="path16" fill="#e0e0e0" d="m1.8e2 6.1e2c4.9-10 35-50 75-50s71 40 75 50"/><g id="g18" transform="matrix(.18 0 0 .18 5.6e2 4.5e2)"><path id="path20" fill="#c2c2c2" d="m2.4e2 4.4e2h1.7e2s-84 2.3e2 32 3e2c-1.4e2 -42 16 72-1.1e2 13 2.5-16-24-41-1.3e2 -2.7 1.3e2 -1.2e2 40-3.1e2 40-3.1e2z"/><path id="path22" d="m 180,80 c -110,4 -200,70 -200,160 0,49 31,94 80,120 5.8,84 120,150 260,150 140,0 260,-71 260,-160 0,-0.43 -0.08,-0.85 -0.086,-1.3 42,-19 68,-46 68,-76 0,-32 -29,-60 -73,-79 2,-8.7 3.1,-18 3.1,-27 0,-87 -159,-160 -220,-160 C 258.61457,6.6495259 234.28451,26.497025 180,80 Z" style="fill:#a3a3a3"/></g><g id="g24" transform="matrix(.12 0 0 .12 3.1e2 4.8e2)"><g id="g26" transform="translate(23 42)"><path id="path28" fill="#c2c2c2" d="m2.4e2 1.2e2h1.7e2s-84 4.5e2 32 5.9e2c-1.4e2 -82-17 79-1.1e2 -2.1 2.5-31-24-53-1.3e2 23 1.3e2 -2.3e2 37-6.1e2 37-6.1e2z"/><path id="path30" d="m 190,-103 c -120,4 -210,73 -210,160 0,49 31,94 80,120 5.8,84 120,150 260,150 140,0 260,-71 260,-160 0,-0.43 -0.08,-0.85 -0.086,-1.3 42,-19 68,-46 68,-76 0,-32 -29,-60 -73,-79 2,-8.7 3.1,-18 3.1,-27 0,-87 -159,-160 -220,-160 -70.87374,0.46068 -115.81925,21.85669 -168.014,73.3 z" style="fill:#a3a3a3"/></g></g></svg>