<svg xmlns="http://www.w3.org/2000/svg" xmlns:svg="http://www.w3.org/2000/svg" id="svg2" width="100" height="100" version="1.1"><metadata id="metadata18"/><title id="title4">golden sun yellow</title><path style="fill:#e0e0e0;fill-opacity:1;fill-rule:evenodd;stroke:none;stroke-width:1.1787746;stroke-miterlimit:4" id="path2387" stroke-miterlimit="4" d="M 76.554477,72.899662 83.483898,87.249422 70.000062,78.764208 73.144791,94.387167 62.193841,82.81372 61.35622,98.728285 53.626187,84.793811 48.858905,100 44.835551,84.580087 36.43807,98.122439 36.374194,82.185908 24.874184,93.213471 28.773786,77.761782 14.893841,85.581707 22.511873,71.585668 7.1241726,75.706555 17.981999,64.045648 2.0533923,64.208589 15.468736,55.615422 0,51.810152 15.129991,46.82474 1.0931616,39.290421 16.987038,38.22598 5.2640449,27.43598 20.923196,30.359384 12.250725,16.99167 26.691197,23.719257 21.614087,8.6138208 33.928624,18.722832 32.765891,2.82875 42.180633,15.68407 45.00538,0 50.928724,14.79387 57.563484,0.3053479 59.623322,16.108146 69.651111,3.7255684 67.718048,19.544399 80.508827,10.045741 74.704268,24.886679 89.4544,18.868832 80.14305,31.799232 95.92567,29.640342 83.692616,39.847828 99.516064,41.683456 85.129939,48.526749 100,54.241585 84.364744,57.290563 97.347021,66.525517 81.445105,65.588648 91.723929,77.76355 76.554478,72.899664 Z"/></svg>