<svg xmlns="http://www.w3.org/2000/svg" xmlns:xlink="http://www.w3.org/1999/xlink" id="Layer_1" width="192" height="192" x="0" y="0" enable-background="new -64 -64 192 192" version="1.1" viewBox="-64 -64 192 192" xml:space="preserve"><rect width="148.495" height="148.495" x="-42.249" y="-42.248" fill="#FAFAFA" stroke="#CCC" stroke-miterlimit="10" stroke-width="4" opacity=".5"/><g><defs><rect id="SVGID_1_" width="152" height="152" x="-44.001" y="-44"/></defs><clipPath id="SVGID_2_"><use overflow="visible" xlink:href="#SVGID_1_"/></clipPath><g clip-path="url(#SVGID_2_)"><image width="265" height="265" opacity=".2" overflow="visible" transform="matrix(1 0 0 1 -100.5 -84.5)" xlink:href="DC4EF6CF.png"/><g><rect width="148.495" height="148.496" x="-42.247" y="-42.247" fill="#005941" transform="matrix(0.9897 0.1435 -0.1435 0.9897 4.9229 -4.2605)"/></g></g></g><path fill="#005941" d="M116.134-30.826L-30.824-52.132l-21.31,146.959l146.959,21.308L116.134-30.826z"/><g><image width="216" height="174" opacity=".2" overflow="visible" transform="matrix(1 0 0 1 -73.5 -38.5)" xlink:href="DC4EF6CA.png"/><g><polygon fill="#FFF" points="9.679 70.535 -25.425 23.948 -12.239 14.009 12.933 47.417 83.605 -5.839 93.537 7.344"/></g></g><line x1="-31.029" x2="115.93" y1="-50.409" y2="-29.103" fill="none" stroke="#FFF" stroke-miterlimit="10" stroke-width="4" opacity=".2"/><line x1="-51.864" x2="95.096" y1="93.095" y2="114.402" fill="none" stroke="#263238" stroke-miterlimit="10" stroke-width="4" opacity=".2"/><g><defs><path id="SVGID_3_" d="M116.134-30.808L-30.824-52.115l-21.31,146.959l146.959,21.309L116.134-30.808z"/></defs><clipPath id="SVGID_4_"><use overflow="visible" xlink:href="#SVGID_3_"/></clipPath><linearGradient id="SVGID_5_" x1="-52.134" x2="116.134" y1="31.672" y2="31.672" gradientUnits="userSpaceOnUse"><stop offset="0" style="stop-color:#fff;stop-opacity:.1"/><stop offset="1" style="stop-color:#fff;stop-opacity:0"/></linearGradient><rect width="168.268" height="168.268" x="-52.134" y="-52.462" fill="url(#SVGID_5_)" clip-path="url(#SVGID_4_)"/></g></svg>